<svg width="72" height="72" viewBox="0 0 72 72" fill="none" xmlns="http://www.w3.org/2000/svg">
<rect width="72" height="72" rx="36" fill="white" fill-opacity="0.15"/>
<path d="M36.2 18L35.1875 18.7242L34.1504 19.3957L33.0746 20.0215L31.9777 20.598L30.8527 21.1219L29.7031 21.593L28.5359 22.0148L27.3512 22.3805L26.1523 22.6898L24.9359 22.9465L23.709 23.1434L22.4785 23.284L21.241 23.3719L20 23.4L20.0281 24.9012L20.1195 26.3988L20.2707 27.893L20.4852 29.3801L20.7594 30.8566L21.0898 32.3191L21.4801 33.7676L21.9301 35.1984L22.4363 36.6117L23.0023 38.0039L23.6246 39.3715L24.2996 40.7109L25.0273 42.0258L25.8078 43.3055L26.641 44.5535L27.527 45.7699L28.4586 46.9477L29.4359 48.0832L30.459 49.1801L31.5277 50.2383L32.6387 51.2473L33.7883 52.2141L34.9766 53.1316L36.2 54L37.4234 53.1316L38.6117 52.2141L39.7613 51.2473L40.8723 50.2383L41.941 49.1801L42.9641 48.0832L43.9414 46.9477L44.873 45.7699L45.7555 44.5535L46.5887 43.3055L47.3727 42.0258L48.1004 40.7109L48.7754 39.3715L49.3977 38.0039L49.9602 36.6117L50.4664 35.1984L50.9164 33.7676L51.3102 32.3191L51.6441 30.8566L51.9148 29.3801L52.1293 27.893L52.2805 26.3988L52.3719 24.9012L52.4 23.4L51.159 23.3719L49.9215 23.284L48.691 23.1434L47.4641 22.9465L46.2477 22.6898L45.0488 22.3805L43.8641 22.0148L42.6934 21.593L41.5473 21.1219L40.4223 20.598L39.3219 20.0215L38.2496 19.3957L37.209 18.7242L36.2 18ZM36.2 20.2113L37.2758 20.9074L38.3797 21.5543L39.5082 22.1555L40.6684 22.7039L41.8461 23.1961L43.0484 23.6391L44.2684 24.0293L45.5059 24.3598L46.7539 24.641L48.0125 24.8625L49.2816 25.0312L50.5578 25.1437L50.4594 26.5605L50.3012 27.9738L50.0902 29.3836L49.8195 30.7793L49.4926 32.1645L49.1094 33.5355L48.6734 34.8855L48.1848 36.2215L47.6363 37.5363L47.0422 38.8266L46.3918 40.0922L45.6922 41.3297L44.9398 42.5391L44.1453 43.7203L43.3016 44.8629L42.4121 45.9738L41.477 47.0461L40.4996 48.0797L39.4836 49.0746L38.4254 50.0238L37.3285 50.9344L36.2 51.7992L35.0715 50.9344L33.9746 50.0238L32.9199 49.0746L31.9004 48.0797L30.923 47.0461L29.9879 45.9738L29.102 44.8629L28.2547 43.7203L27.4602 42.5391L26.7078 41.3297L26.0082 40.0922L25.3613 38.8266L24.7602 37.5363L24.2188 36.2215L23.7266 34.8855L23.2906 33.5355L22.9074 32.1645L22.5805 30.7793L22.3098 29.3836L22.0988 27.9738L21.9406 26.5605L21.8422 25.1437L23.1148 25.0312L24.384 24.8625L25.6461 24.641L26.8977 24.3598L28.1316 24.0293L29.3516 23.6391L30.5539 23.1961L31.7316 22.7039L32.8918 22.1555L34.0238 21.5543L35.1242 20.9074L36.2 20.2113ZM43.4141 29.693C43.1805 29.6994 42.9586 29.7965 42.7953 29.9637L34.4316 38.3273L31.468 35.3637C30.6197 34.4802 29.3119 35.7881 30.1953 36.6363L33.7953 40.2363C34.1468 40.5877 34.7165 40.5877 35.068 40.2363L44.068 31.2363C44.6535 30.6639 44.2326 29.6705 43.4141 29.693Z" fill="white"/>
</svg>
