<svg width="72" height="72" viewBox="0 0 72 72" fill="none" xmlns="http://www.w3.org/2000/svg">
<rect width="72" height="72" rx="36" fill="white" fill-opacity="0.15"/>
<path fill-rule="evenodd" clip-rule="evenodd" d="M45.6527 46.6988C44.0291 48.2771 42.301 49.9162 42.301 49.9162L39.3214 44.8268C42.4415 44.0663 45.1389 42.264 47.0199 39.8115L50.2783 45.3758C50.2783 45.3758 47.9554 46.044 45.6527 46.6988ZM36 42.759C29.7957 42.759 24.7676 37.7156 24.7676 31.4966C24.7676 25.2776 29.7957 20.2342 36 20.2342C42.2043 20.2342 47.2324 25.2776 47.2324 31.4966C47.2324 37.7156 42.2043 42.759 36 42.759ZM29.699 49.9162C29.699 49.9162 27.9709 48.2771 26.3473 46.6988C24.0446 46.044 21.7217 45.3758 21.7217 45.3758L24.9801 39.8115C26.8611 42.264 29.5585 44.0663 32.6786 44.8268L29.699 49.9162ZM48.3916 37.6155C49.2945 35.8031 49.8162 33.7736 49.8162 31.6192C49.8162 24.0975 43.63 18 36 18C28.37 18 22.1838 24.0975 22.1838 31.6192C22.1838 33.7736 22.7055 35.8031 23.6084 37.6155L18 47.1893C18 47.1893 21.5564 47.9036 25.1645 48.6461C27.5706 51.3259 29.9655 54 29.9655 54L35.1219 45.1958C35.4142 45.2138 35.7032 45.2396 36 45.2396C36.2968 45.2396 36.5858 45.2138 36.8781 45.1958L42.0345 54C42.0345 54 44.4294 51.3259 46.8355 48.6461C50.4436 47.9036 54 47.1893 54 47.1893L48.3916 37.6155ZM36 37.125C32.8945 37.125 30.3782 34.6073 30.3782 31.5C30.3782 28.3927 32.8945 25.875 36 25.875C39.1055 25.875 41.6218 28.3927 41.6218 31.5C41.6218 34.6073 39.1055 37.125 36 37.125ZM36 23.625C31.6532 23.625 28.1294 27.1508 28.1294 31.5C28.1294 35.8493 31.6532 39.375 36 39.375C40.3468 39.375 43.8706 35.8493 43.8706 31.5C43.8706 27.1508 40.3468 23.625 36 23.625Z" fill="white"/>
</svg>
