<svg width="72" height="72" viewBox="0 0 72 72" fill="none" xmlns="http://www.w3.org/2000/svg">
<rect width="72" height="72" rx="36" fill="white" fill-opacity="0.15"/>
<path d="M55.5667 28.3462L54.3026 29.759L53.1873 28.718L54.5257 27.3052L55.5667 28.3462Z" fill="white"/>
<path d="M19.7257 29.2385L18.6847 30.3538L17.3462 29.0897L18.3129 27.9744L19.7257 29.2385Z" fill="white"/>
<path d="M30.2102 45.4487L29.0205 44.4077L28.6487 44.7795C28.5 44.9282 28.4256 45.1513 28.4256 45.3744C28.4256 45.5974 28.5 45.8205 28.7231 45.9692C29.0949 46.2667 29.541 46.2667 29.9128 45.8949L30.2102 45.4487ZM36.2333 52.5128C36.4564 52.5128 36.6795 52.4385 36.8282 52.2154L37.2 51.8436L35.9359 50.7282L35.5641 51.1C35.2666 51.4718 35.2666 51.9923 35.6384 52.2897C35.7872 52.4385 36.0102 52.5872 36.2333 52.5128ZM32.5154 47.6051L31.3256 46.4897L30.9538 46.8615C30.8051 47.0103 30.7308 47.2333 30.7308 47.4564C30.7308 47.6795 30.8051 47.9026 31.0282 48.0513C31.1769 48.2 31.4 48.2744 31.6231 48.2744C31.8461 48.2744 32.0692 48.2 32.2179 47.9769L32.5154 47.6051ZM33.3333 50.2077C33.7051 50.5051 34.1513 50.5051 34.5231 50.1333L34.8948 49.7615L33.7051 48.6462L33.259 49.018C33.1102 49.1667 33.0359 49.3897 33.0359 49.6128C33.0359 49.8359 33.1846 50.059 33.3333 50.2077ZM43 25.2231L50.2871 31.9154L52.3692 29.6846L53.4846 30.7257L51.4025 32.9564L52.1461 33.7L57.1282 28.2718L47.982 19.7949L43 25.2231ZM48.1307 36.1539L50.2128 33.8487L42.9256 27.1564L40.4718 29.9077C40.323 30.0564 40.1743 30.1308 40.0256 30.1308L35.4154 30.8L30.2846 36.4513C29.9872 36.8231 29.9872 37.3436 30.359 37.641C30.7308 37.9385 31.2513 37.9385 31.5487 37.5667L35.1923 33.6257C35.4154 33.3282 35.8615 33.3282 36.1589 33.5513C36.2333 33.6257 37.4974 34.518 39.0589 34.741V34.6667L39.1333 34.741C40.3974 34.9641 41.8846 34.6667 43.223 33.2539L44.3384 34.2205C43.223 35.4103 42.0333 36.0051 40.8436 36.1539L46.8666 41.5077L47.3871 40.9128L48.0564 36.6C47.982 36.3769 48.0564 36.3026 48.1307 36.1539ZM29.6154 24.8513L24.1872 19.8693L15.7846 29.0898L21.2128 34.0718L21.882 33.3282L19.6513 31.2462L20.6923 30.1308L22.9231 32.2128L29.6154 24.8513ZM26.1949 39.7974L39.0589 51.5462C39.4307 51.8436 39.9513 51.8436 40.2487 51.4718C40.5461 51.1 40.5461 50.5795 40.1743 50.2821L37.6461 47.9769L37.4974 47.8282L38.4641 46.7128L41.141 49.1667C41.2897 49.3154 41.5128 49.3897 41.7359 49.3897C41.9589 49.3897 42.182 49.3154 42.3307 49.0923C42.6282 48.7205 42.6282 48.2 42.2564 47.9026L40.2487 46.0436L39.5795 45.4487L40.6948 44.4077L41.3641 45.0026L43.3718 46.8615C43.7436 47.159 44.2641 47.159 44.5615 46.7872C44.8589 46.4154 44.8589 45.8949 44.4871 45.5974L43.3718 44.5564L42.0333 43.2923L41.8846 43.1436L42.8512 42.0282L44.4128 43.441L45.5282 44.4077C45.6769 44.5564 45.9 44.6308 46.123 44.6308C46.3461 44.6308 46.5692 44.5564 46.7179 44.3333C46.8666 44.1846 46.941 43.9615 46.941 43.7385C46.941 43.5154 46.8666 43.2923 46.6436 43.1436L38.4641 35.9308C37.4231 35.7077 36.5307 35.3359 35.7872 34.8898L32.5154 38.5333C32.0692 39.0539 31.4 39.2769 30.8051 39.2769C30.2102 39.2769 29.6897 39.0539 29.2436 38.6821C28.2769 37.7898 28.2025 36.3769 29.0949 35.4103L34.4487 29.5359C34.5974 29.3872 34.7461 29.3128 34.8948 29.3128L37.4974 28.9411L36.4564 28.0487L32.0692 28.1975C31.8461 28.1975 31.6974 28.1231 31.5487 27.9744L30.0615 26.5616L23.4436 33.8487L25.3769 35.559C25.5256 35.6334 25.6 35.8564 25.6 36.0051L26.1949 39.7974ZM26.9384 45.3744C26.9384 44.7795 27.1615 44.1103 27.6077 43.6641L27.9795 43.2923L25.0051 40.6898C24.8564 40.541 24.782 40.3923 24.782 40.2436L24.1128 36.4513L22.4026 34.8898L21.8077 35.559C21.659 35.7077 21.4359 35.7821 21.2872 35.7821C21.1385 35.7821 20.9154 35.7077 20.7667 35.559L14.2231 29.6103C14.0744 29.4616 14 29.3128 14 29.0898C14 28.8667 14.0744 28.718 14.2231 28.5693L23.5923 18.3077C23.741 18.159 23.8897 18.0847 24.1128 18.0847C24.3359 18.0847 24.4846 18.159 24.6333 18.3077L31.1769 24.3308C31.4743 24.6282 31.4743 25.0744 31.2513 25.3718L31.0282 25.5205L32.3666 26.7103L36.7538 26.5616C36.9769 26.5616 37.1256 26.6359 37.2743 26.7846L39.3564 28.7923H39.5051L41.8102 26.2641L41.4384 25.818C41.2897 25.6693 41.2154 25.5205 41.2154 25.2975C41.2154 25.0744 41.2897 24.9257 41.4384 24.777L47.3871 18.2334C47.6846 17.9359 48.1307 17.9359 48.4282 18.159L58.6897 27.5282C58.9871 27.8257 58.9871 28.2718 58.7641 28.5693L52.8153 35.1128C52.6666 35.2616 52.5179 35.3359 52.2948 35.3359C52.0718 35.3359 51.923 35.2616 51.7743 35.1128L51.4025 34.741L49.3948 36.9718L48.7256 41.2846C48.7256 41.4333 48.6512 41.5821 48.5025 41.6564L47.7589 42.4C48.0564 42.7718 48.2794 43.218 48.2794 43.7385C48.2794 44.4077 48.1307 45.0026 47.6846 45.4487C47.3128 45.8949 46.7179 46.118 46.123 46.1923C46.123 46.7872 45.9 47.3077 45.5282 47.7539C45.1564 48.2 44.5615 48.4231 43.9666 48.4974C43.9666 49.0923 43.7436 49.6128 43.3718 50.059C43 50.5051 42.4051 50.7282 41.8102 50.8026C41.8102 51.3974 41.5871 51.9179 41.2154 52.4385C40.7692 52.959 40.1 53.182 39.5051 53.182C39.0589 53.182 38.6128 53.0333 38.241 52.8103L37.8692 53.2564C37.423 53.7026 36.9025 54 36.2333 54H36.1589C35.5641 54 35.0436 53.7769 34.5974 53.4051C34.1513 53.0333 33.9282 52.4385 33.8538 51.918C33.259 51.918 32.7384 51.6949 32.2923 51.3231C31.8461 50.9513 31.6231 50.3564 31.5487 49.8359C30.9538 49.8359 30.4333 49.6128 29.9872 49.241C29.541 48.8692 29.3179 48.2744 29.2436 47.7539C28.6487 47.7539 28.1282 47.5308 27.682 47.159C27.1615 46.6385 26.9384 46.0436 26.9384 45.3744Z" fill="white"/>
</svg>
