<svg width="72" height="72" viewBox="0 0 72 72" fill="none" xmlns="http://www.w3.org/2000/svg">
<rect width="72" height="72" rx="36" fill="white" fill-opacity="0.15"/>
<path d="M30.1013 36.0451L34.1419 40.0856L42.223 32.0045M52.3243 36.0451C52.3243 45.0577 41.2936 51.5884 37.458 53.5871C37.0432 53.8032 36.8357 53.9113 36.548 53.9673C36.3238 54.0109 36.0005 54.0109 35.7763 53.9673C35.4886 53.9113 35.2811 53.8032 34.8664 53.5871C31.0306 51.5884 20 45.0577 20 36.0451V28.4036C20 26.7883 20 25.9807 20.2642 25.2865C20.4975 24.6732 20.8768 24.126 21.3691 23.6922C21.9263 23.2011 22.6825 22.9175 24.1949 22.3503L35.0272 18.2882C35.4472 18.1307 35.6571 18.052 35.8733 18.0208C36.0648 17.9931 36.2595 17.9931 36.4511 18.0208C36.6672 18.052 36.8771 18.1307 37.2971 18.2882L48.1294 22.3503C49.6418 22.9175 50.398 23.2011 50.9552 23.6922C51.4475 24.126 51.8267 24.6732 52.0601 25.2865C52.3243 25.9807 52.3243 26.7883 52.3243 28.4036V36.0451Z" stroke="white" stroke-width="2" stroke-linecap="round" stroke-linejoin="round"/>
</svg>
