<svg width="17" height="17" viewBox="0 0 17 17" fill="none" xmlns="http://www.w3.org/2000/svg">
<path fill-rule="evenodd" clip-rule="evenodd" d="M4.45245 1.65419C5.12369 1.60145 5.76091 1.34167 6.27336 0.911842C6.85214 0.426793 7.58756 0.1604 8.34783 0.1604C9.10809 0.1604 9.84351 0.426793 10.4223 0.911842C10.9347 1.34167 11.572 1.60145 12.2432 1.65419C13.0012 1.7138 13.7129 2.03713 14.2506 2.56622C14.7883 3.09531 15.1169 3.79556 15.1775 4.54142C15.2307 5.20163 15.4947 5.82898 15.932 6.33311C16.4249 6.90262 16.6957 7.62624 16.6957 8.3743C16.6957 9.12237 16.4249 9.84599 15.932 10.4155C15.4951 10.9197 15.2311 11.5467 15.1775 12.2072C15.1169 12.9531 14.7883 13.6533 14.2506 14.1824C13.7129 14.7115 13.0012 15.0348 12.2432 15.0944C11.572 15.1472 10.9347 15.4069 10.4223 15.8368C9.84351 16.3218 9.10809 16.5882 8.34783 16.5882C7.58756 16.5882 6.85214 16.3218 6.27336 15.8368C5.76091 15.4069 5.12369 15.1472 4.45245 15.0944C3.69443 15.0348 2.98276 14.7115 2.44504 14.1824C1.90733 13.6533 1.57872 12.9531 1.51814 12.2072C1.46455 11.5467 1.20053 10.9197 0.763693 10.4155C0.270736 9.84599 0 9.12237 0 8.3743C0 7.62624 0.270736 6.90262 0.763693 6.33311C1.20053 5.82889 1.46455 5.20189 1.51814 4.54142C1.57872 3.79556 1.90733 3.09531 2.44504 2.56622C2.98276 2.03713 3.69443 1.7138 4.45245 1.65419ZM12.2161 7.04671C12.4062 6.85306 12.5113 6.5937 12.509 6.32449C12.5066 6.05528 12.3968 5.79775 12.2034 5.60738C12.0099 5.41701 11.7482 5.30903 11.4746 5.30669C11.201 5.30435 10.9374 5.40784 10.7406 5.59488L7.30433 8.97598L5.95509 7.64839C5.75828 7.46136 5.49469 7.35787 5.22109 7.3602C4.94749 7.36254 4.68577 7.47053 4.4923 7.6609C4.29882 7.85126 4.18908 8.10879 4.1867 8.378C4.18432 8.64721 4.2895 8.90657 4.47959 9.10022L6.56658 11.1537C6.76226 11.3462 7.02763 11.4544 7.30433 11.4544C7.58103 11.4544 7.8464 11.3462 8.04208 11.1537L12.2161 7.04671Z" fill="white"/>
</svg>
