<svg width="30" height="31" viewBox="0 0 30 31" fill="none" xmlns="http://www.w3.org/2000/svg">
<path d="M29.8494 5.5036C29.6981 4.8236 29.6887 4.73547 28.1619 4.73547H26.6269L26.32 3.89235C25.915 2.66922 24.5537 1.50359 23.1975 1.16359C22.4125 0.967342 19.6162 0.932967 12.7918 0.980467C4.21245 1.04047 3.38557 1.08922 2.53682 1.47109C0.636818 2.32484 -0.410059 4.47735 0.151192 6.37298C0.543068 7.69423 1.36682 8.67236 2.53682 9.19798C3.38495 9.57923 4.21182 9.61923 12.7912 9.67861C19.615 9.72673 22.4119 9.67236 23.1962 9.47548C24.5569 9.13486 25.9144 7.92736 26.3231 6.69298C26.6312 5.76485 26.645 5.75548 27.6512 5.82173L28.6669 5.8886L28.7344 9.09236L28.8012 12.2955L25.8244 12.9986C24.1894 13.3855 22.1412 13.8799 21.2744 14.098C20.4081 14.3155 18.3087 14.8261 16.6093 15.2324L13.5193 15.9717L13.5187 17.5942C13.5181 19.2068 13.6593 19.2218 12.6962 20.0268L11.875 20.8361V30.9855H16.25V20.8361L15.3556 20.0161C14.4018 19.2186 14.4193 19.1605 14.4918 17.9336L14.5862 16.6724L15.6887 16.398C16.2893 16.2461 18.2025 15.7811 19.9356 15.3617C21.6687 14.9436 24.6444 14.2255 26.545 13.7655L30 12.9305V9.60048C30 7.77048 29.9319 5.8811 29.8494 5.5036ZM14.8593 28.258C14.8593 28.7843 14.76 28.893 14.225 28.9486C13.5512 29.0174 13.26 28.6836 13.4037 28.0086C13.46 27.7455 13.6918 27.6318 14.1718 27.6318C14.7818 27.6324 14.8593 27.7036 14.8593 28.258Z" fill="black"/>
</svg>
