<svg width="17" height="17" viewBox="0 0 17 17" fill="none" xmlns="http://www.w3.org/2000/svg">
<path d="M7.27925 0.866307C7.61612 -0.196158 9.07925 -0.196158 9.415 0.866307L10.6165 4.66396C10.6899 4.89524 10.8326 5.09676 11.0242 5.23972C11.2158 5.38268 11.4465 5.45976 11.6832 5.45994H15.5707C16.6588 5.45994 17.1102 6.8904 16.231 7.54795L13.0869 9.89437C12.8949 10.0375 12.7519 10.2393 12.6785 10.471C12.6051 10.7027 12.6049 10.9523 12.6781 11.1841L13.8796 14.9817C14.2165 16.0442 13.0318 16.929 12.1504 16.2715L9.00626 13.925C8.81448 13.782 8.58356 13.705 8.34656 13.705C8.10956 13.705 7.87864 13.782 7.68686 13.925L4.54275 16.2715C3.6624 16.929 2.47887 16.0442 2.81461 14.9817L4.01611 11.1841C4.0893 10.9523 4.08917 10.7027 4.01574 10.471C3.94231 10.2393 3.79936 10.0375 3.60738 9.89437L0.464394 7.54911C-0.414834 6.89156 0.0376933 5.46109 1.12466 5.46109H5.011C5.24798 5.46116 5.47891 5.38419 5.67073 5.24121C5.86254 5.09824 6.00541 4.89658 6.07887 4.66511L7.28037 0.86746L7.27925 0.866307Z" fill="white"/>
</svg>
