<svg width="19" height="13" viewBox="0 0 19 13" fill="none" xmlns="http://www.w3.org/2000/svg">
<path fill-rule="evenodd" clip-rule="evenodd" d="M17.7136 0.378708C17.956 0.621267 18.0923 0.950204 18.0923 1.29318C18.0923 1.63616 17.956 1.9651 17.7136 2.20766L7.36588 12.5553C7.12332 12.7978 6.79438 12.934 6.4514 12.934C6.10842 12.934 5.77949 12.7978 5.53693 12.5553L0.363089 7.3815C0.127475 7.13755 -0.00289815 6.81082 4.88962e-05 6.47168C0.00299594 6.13254 0.139028 5.80812 0.378846 5.5683C0.618663 5.32848 0.943079 5.19245 1.28222 5.18951C1.62136 5.18656 1.94809 5.31693 2.19204 5.55255L6.4514 9.81191L15.8846 0.378708C16.1272 0.136221 16.4561 0 16.7991 0C17.1421 0 17.471 0.136221 17.7136 0.378708Z" fill="#0DFF00"/>
</svg>
