<svg width="22" height="25" viewBox="0 0 22 25" fill="none" xmlns="http://www.w3.org/2000/svg">
<path fill-rule="evenodd" clip-rule="evenodd" d="M1.57143 3.125C1.57143 2.2962 1.90255 1.50134 2.49195 0.915291C3.08135 0.32924 3.88075 0 4.71429 0H17.2857C18.1193 0 18.9186 0.32924 19.508 0.915291C20.0974 1.50134 20.4286 2.2962 20.4286 3.125V21.875C20.8453 21.875 21.245 22.0396 21.5397 22.3326C21.8344 22.6257 22 23.0231 22 23.4375C22 23.8519 21.8344 24.2493 21.5397 24.5424C21.245 24.8354 20.8453 25 20.4286 25H15.7143C15.2975 25 14.8978 24.8354 14.6031 24.5424C14.3084 24.2493 14.1429 23.8519 14.1429 23.4375V20.3125C14.1429 19.8981 13.9773 19.5007 13.6826 19.2076C13.3879 18.9146 12.9882 18.75 12.5714 18.75H9.42857C9.0118 18.75 8.6121 18.9146 8.3174 19.2076C8.0227 19.5007 7.85714 19.8981 7.85714 20.3125V23.4375C7.85714 23.8519 7.69158 24.2493 7.39688 24.5424C7.10218 24.8354 6.70248 25 6.28571 25H1.57143C1.15466 25 0.754961 24.8354 0.460261 24.5424C0.165561 24.2493 0 23.8519 0 23.4375C0 23.0231 0.165561 22.6257 0.460261 22.3326C0.754961 22.0396 1.15466 21.875 1.57143 21.875V3.125ZM6.28571 4.6875H9.42857V7.8125H6.28571V4.6875ZM9.42857 10.9375H6.28571V14.0625H9.42857V10.9375ZM12.5714 4.6875H15.7143V7.8125H12.5714V4.6875ZM15.7143 10.9375H12.5714V14.0625H15.7143V10.9375Z" fill="black"/>
</svg>
