<svg width="26" height="25" viewBox="0 0 26 25" fill="none" xmlns="http://www.w3.org/2000/svg">
<path d="M14.1064 0.457485C13.8129 0.164557 13.415 0 13 0C12.585 0 12.1871 0.164557 11.8936 0.457485L0.939287 11.3951C0.654227 11.6898 0.496494 12.0845 0.500059 12.4942C0.503625 12.9039 0.668204 13.2958 0.95835 13.5855C1.2485 13.8752 1.64099 14.0395 2.05131 14.0431C2.46162 14.0467 2.85692 13.8892 3.15206 13.6045L3.61058 13.1467V23.4375C3.61058 23.8519 3.77545 24.2493 4.06893 24.5423C4.3624 24.8354 4.76044 25 5.17548 25H8.30529C8.72033 25 9.11837 24.8354 9.41184 24.5423C9.70532 24.2493 9.87019 23.8519 9.87019 23.4375V20.3124C9.87019 19.898 10.0351 19.5006 10.3285 19.2076C10.622 18.9145 11.0201 18.7499 11.4351 18.7499H14.5649C14.9799 18.7499 15.378 18.9145 15.6715 19.2076C15.9649 19.5006 16.1298 19.898 16.1298 20.3124V23.4375C16.1298 23.8519 16.2947 24.2493 16.5882 24.5423C16.8816 24.8354 17.2797 25 17.6947 25H20.8245C21.2396 25 21.6376 24.8354 21.9311 24.5423C22.2245 24.2493 22.3894 23.8519 22.3894 23.4375V13.1467L22.8479 13.6045C23.1431 13.8892 23.5384 14.0467 23.9487 14.0431C24.359 14.0395 24.7515 13.8752 25.0416 13.5855C25.3318 13.2958 25.4964 12.9039 25.4999 12.4942C25.5035 12.0845 25.3458 11.6898 25.0607 11.3951L14.1064 0.457485Z" fill="white"/>
</svg>
