<svg width="99" height="15" viewBox="0 0 99 15" fill="none" xmlns="http://www.w3.org/2000/svg">
<path d="M6.53278 0.726794C6.83511 -0.242265 8.1482 -0.242265 8.44952 0.726794L9.52781 4.19058C9.59369 4.40153 9.72175 4.58533 9.89369 4.71572C10.0656 4.84612 10.2727 4.91642 10.4852 4.91658H13.974C14.9505 4.91658 15.3556 6.22129 14.5665 6.82103L11.7448 8.96117C11.5726 9.09167 11.4443 9.27578 11.3784 9.4871C11.3125 9.69842 11.3124 9.92611 11.378 10.1375L12.4563 13.6013C12.7586 14.5703 11.6955 15.3774 10.9044 14.7776L8.0827 12.6375C7.91058 12.507 7.70334 12.4368 7.49065 12.4368C7.27795 12.4368 7.07071 12.507 6.8986 12.6375L4.07691 14.7776C3.28683 15.3774 2.22467 14.5703 2.52598 13.6013L3.60427 10.1375C3.66995 9.92611 3.66984 9.69842 3.60394 9.4871C3.53804 9.27578 3.40975 9.09167 3.23745 8.96117L0.416772 6.82208C-0.372294 6.22234 0.033828 4.91763 1.00933 4.91763H4.49714C4.70982 4.91769 4.91707 4.84749 5.08921 4.71708C5.26136 4.58668 5.38957 4.40275 5.4555 4.19163L6.53379 0.727846L6.53278 0.726794Z" fill="#F4B400"/>
<path d="M27.4786 0.735095C27.7809 -0.233964 29.094 -0.233964 29.3953 0.735095L30.4736 4.19888C30.5395 4.40983 30.6675 4.59363 30.8395 4.72402C31.0114 4.85442 31.2185 4.92472 31.431 4.92488H34.9198C35.8963 4.92488 36.3014 6.22959 35.5123 6.82933L32.6906 8.96947C32.5184 9.09997 32.3901 9.28408 32.3242 9.4954C32.2583 9.70673 32.2582 9.93441 32.3238 10.1458L33.4021 13.6096C33.7044 14.5786 32.6413 15.3857 31.8502 14.7859L29.0285 12.6458C28.8564 12.5153 28.6491 12.4451 28.4364 12.4451C28.2238 12.4451 28.0165 12.5153 27.8444 12.6458L25.0227 14.7859C24.2326 15.3857 23.1705 14.5786 23.4718 13.6096L24.5501 10.1458C24.6158 9.93441 24.6156 9.70673 24.5497 9.4954C24.4838 9.28408 24.3555 9.09997 24.1833 8.96947L21.3626 6.83038C20.5735 6.23064 20.9796 4.92593 21.9551 4.92593H25.4429C25.6556 4.92599 25.8629 4.85579 26.035 4.72539C26.2072 4.59498 26.3354 4.41105 26.4013 4.19993L27.4796 0.736147L27.4786 0.735095Z" fill="#F4B400"/>
<path d="M48.4324 0.735095C48.7348 -0.233964 50.0479 -0.233964 50.3492 0.735095L51.4275 4.19888C51.4933 4.40983 51.6214 4.59363 51.7933 4.72402C51.9653 4.85442 52.1723 4.92472 52.3848 4.92488H55.8736C56.8502 4.92488 57.2553 6.22959 56.4662 6.82933L53.6445 8.96947C53.4722 9.09997 53.3439 9.28408 53.278 9.4954C53.2121 9.70673 53.212 9.93441 53.2777 10.1458L54.356 13.6096C54.6583 14.5786 53.5951 15.3857 52.804 14.7859L49.9824 12.6458C49.8102 12.5153 49.603 12.4451 49.3903 12.4451C49.1776 12.4451 48.9704 12.5153 48.7983 12.6458L45.9766 14.7859C45.1865 15.3857 44.1243 14.5786 44.4256 13.6096L45.5039 10.1458C45.5696 9.93441 45.5695 9.70673 45.5036 9.4954C45.4377 9.28408 45.3094 9.09997 45.1371 8.96947L42.3164 6.83038C41.5274 6.23064 41.9335 4.92593 42.909 4.92593H46.3968C46.6095 4.92599 46.8167 4.85579 46.9889 4.72539C47.161 4.59498 47.2892 4.41105 47.3552 4.19993L48.4335 0.736147L48.4324 0.735095Z" fill="#F4B400"/>
<path d="M69.3865 0.735095C69.6889 -0.233964 71.002 -0.233964 71.3033 0.735095L72.3816 4.19888C72.4474 4.40983 72.5755 4.59363 72.7475 4.72402C72.9194 4.85442 73.1264 4.92472 73.3389 4.92488H76.8277C77.8043 4.92488 78.2094 6.22959 77.4203 6.82933L74.5986 8.96947C74.4263 9.09997 74.298 9.28408 74.2321 9.4954C74.1662 9.70673 74.1661 9.93441 74.2318 10.1458L75.3101 13.6096C75.6124 14.5786 74.5492 15.3857 73.7581 14.7859L70.9365 12.6458C70.7643 12.5153 70.5571 12.4451 70.3444 12.4451C70.1317 12.4451 69.9245 12.5153 69.7524 12.6458L66.9307 14.7859C66.1406 15.3857 65.0784 14.5786 65.3797 13.6096L66.458 10.1458C66.5237 9.93441 66.5236 9.70673 66.4577 9.4954C66.3918 9.28408 66.2635 9.09997 66.0912 8.96947L63.2705 6.83038C62.4815 6.23064 62.8876 4.92593 63.8631 4.92593H67.3509C67.5636 4.92599 67.7708 4.85579 67.943 4.72539C68.1151 4.59498 68.2433 4.41105 68.3093 4.19993L69.3876 0.736147L69.3865 0.735095Z" fill="#F4B400"/>
<path d="M90.3323 0.743152C90.6347 -0.225907 91.9478 -0.225907 92.2491 0.743152L93.3274 4.20693C93.3932 4.41788 93.5213 4.60169 93.6933 4.73208C93.8652 4.86247 94.0722 4.93277 94.2847 4.93294H97.7735C98.7501 4.93294 99.1552 6.23764 98.3661 6.83739L95.5444 8.97752C95.3721 9.10802 95.2438 9.29214 95.1779 9.50346C95.112 9.71478 95.1119 9.94246 95.1776 10.1539L96.2559 13.6176C96.5582 14.5867 95.495 15.3937 94.7039 14.794L91.8823 12.6538C91.7101 12.5234 91.5029 12.4531 91.2902 12.4531C91.0775 12.4531 90.8703 12.5234 90.6982 12.6538L87.8765 14.794C87.0864 15.3937 86.0242 14.5867 86.3255 13.6176L87.4038 10.1539C87.4695 9.94246 87.4694 9.71478 87.4035 9.50346C87.3376 9.29214 87.2093 9.10802 87.037 8.97752L84.2163 6.83844C83.4273 6.2387 83.8334 4.93399 84.8089 4.93399H88.2967C88.5094 4.93405 88.7166 4.86385 88.8888 4.73344C89.0609 4.60303 89.1891 4.41911 89.2551 4.20798L90.3334 0.744204L90.3323 0.743152Z" fill="url(#paint0_linear_422_82)"/>
<defs>
<linearGradient id="paint0_linear_422_82" x1="83.7996" y1="7.50814" x2="98.7831" y2="7.50814" gradientUnits="userSpaceOnUse">
<stop offset="0.5" stop-color="#F4B400"/>
<stop offset="0.5001" stop-color="white"/>
</linearGradient>
</defs>
</svg>
